<svg width="64" height="55" viewBox="0 0 64 55" fill="none" xmlns="http://www.w3.org/2000/svg">
<path d="M38.9166 0.4729C36.6215 0.493141 34.3908 1.23679 32.54 2.59867C32.1272 2.86349 31.6475 3.00421 31.1575 3.00421C30.6675 3.00421 30.1877 2.86349 29.7749 2.59867C27.9229 1.2364 25.6908 0.492756 23.3944 0.4729C17.4271 0.4729 12.7523 6.0185 12.7523 13.0947C12.7523 16.0495 14.066 18.619 15.2248 20.8856L15.442 21.3107C17.296 24.9538 18.6878 28.2341 19.8122 30.8767C22.2317 36.5685 23.6911 40.0029 26.6323 40.0029C29.6239 40.0029 30.1589 37.2314 30.1589 35.6185C30.1589 30.9578 30.8105 30.5246 31.1614 30.5246C31.5124 30.5246 33.4565 30.8714 33.4565 36.2788C33.4565 37.4042 33.0671 39.9989 35.6892 39.9989C38.6305 39.9989 40.0912 36.5645 42.5107 30.8727C43.6324 28.2315 45.0269 24.9445 46.8809 21.3068L47.0981 20.8816C48.2569 18.623 49.5719 16.0601 49.5719 13.0907C49.5586 6.01717 44.8839 0.4729 38.9166 0.4729Z" fill="white"/>
<path d="M21.9099 18.7917L21.9007 18.8023C21.7957 18.9112 21.7151 19.0414 21.6643 19.184C21.6136 19.3267 21.5938 19.4787 21.6063 19.6296C21.6189 19.7806 21.6634 19.9272 21.737 20.0594C21.8106 20.1917 21.9116 20.3067 22.0331 20.3966C25.6087 23.0645 33.0341 25.2607 41.2051 18.3532C41.3144 18.2607 41.404 18.1468 41.4683 18.0186C41.5326 17.8904 41.5703 17.7504 41.5792 17.6071C41.5881 17.4638 41.568 17.3202 41.5201 17.1849C41.4722 17.0497 41.3974 16.9255 41.3004 16.82C41.1147 16.6151 40.8566 16.491 40.5811 16.4741C40.3055 16.4573 40.0343 16.549 39.8251 16.7297C31.7469 23.5733 25.3902 20.1721 23.3005 18.6642C23.0927 18.5127 22.8371 18.4421 22.5813 18.4656C22.3255 18.489 22.0869 18.6049 21.9099 18.7917Z" fill="#78C2AD"/>
<path d="M44.0974 13.7761C43.6722 13.3712 43.0004 13.3889 42.5968 13.8155C42.1933 14.2421 42.2109 14.9161 42.6361 15.3209C43.0614 15.7257 43.7332 15.7081 44.1367 15.2815C44.5402 14.8549 44.5226 14.1809 44.0974 13.7761Z" fill="#78C2AD"/>
<path d="M39.5614 0.0744019C37.2031 0.0976771 34.9118 0.864089 33.0114 2.26527C32.5873 2.5373 32.0945 2.68186 31.5911 2.68186C31.0878 2.68186 30.5949 2.5373 30.1708 2.26527C28.269 0.863862 25.9764 0.0974712 23.6168 0.0744019C17.4866 0.0744019 12.686 5.77013 12.686 13.0416C12.686 16.0775 14.0355 18.7161 15.226 21.0451L15.4485 21.4809C17.3502 25.2222 18.7831 28.5929 19.9339 31.3006C22.4183 37.1465 23.9188 40.6753 26.9395 40.6753C30.0119 40.6753 30.5615 37.8281 30.5615 36.1753C30.5615 31.3923 31.2316 30.9432 31.5904 30.9432C31.9493 30.9432 32.6208 31.2993 32.6208 36.8542C32.6208 38.0087 33.5478 40.6753 36.2427 40.6753C39.2635 40.6753 40.7639 37.1465 43.2483 31.2993C44.4017 28.5876 45.8373 25.2103 47.7337 21.4822L47.9562 21.0451C49.148 18.7227 50.4962 16.0921 50.4962 13.0416C50.4922 5.76747 45.6956 0.0744019 39.5614 0.0744019ZM46.2372 20.1589L46.0107 20.6014C44.0905 24.3786 42.6404 27.7891 41.4711 30.5407C39.4489 35.3011 37.9868 38.7408 36.2388 38.7408C35.1793 38.7408 34.545 37.8759 34.545 36.15C34.545 30.9857 33.6338 28.9888 31.5865 28.9888C29.2491 28.9888 28.6293 31.5132 28.6293 36.6762C28.6293 37.6527 27.9923 38.7408 26.9355 38.7408C25.1875 38.7408 23.7254 35.3011 21.7006 30.534C20.5352 27.7931 19.0837 24.3812 17.1622 20.6014L16.9371 20.1589C15.8458 18.0265 14.6102 15.6085 14.6102 13.0416C14.6102 6.8556 18.5646 2.01416 23.6155 2.01416C25.5656 2.03176 27.4605 2.66591 29.0306 3.82638C31.0405 5.16088 33.4108 5.84316 35.8203 5.78076C37.4571 5.77011 39.082 5.5011 40.6354 4.98359C40.8641 4.93144 41.0666 4.79873 41.2061 4.60955C41.3456 4.42037 41.4128 4.18727 41.3956 3.95259C41.3756 3.7148 41.2709 3.49218 41.1007 3.32553C40.9304 3.15887 40.706 3.05934 40.4686 3.04516C40.2761 3.03611 40.0852 3.08468 39.9203 3.18467C38.1054 3.78721 36.179 3.9738 34.2828 3.73073C35.8277 2.62477 37.6742 2.02182 39.572 2.00354C44.6202 2.00354 48.5773 6.84896 48.5773 13.031C48.564 15.6058 47.3285 18.0239 46.2372 20.1563V20.1589Z" fill="#78C2AD"/>
<path d="M40.0541 18.8847C40.0101 18.8209 39.947 18.7728 39.8739 18.7472C39.8009 18.7217 39.7216 18.7201 39.6476 18.7426C39.196 18.8754 38.7788 19.0389 38.4636 19.1611C38.0955 19.2873 37.7419 19.4175 37.3353 19.5703L36.7751 19.7629C36.6917 19.7908 36.6096 19.8214 36.5275 19.852C36.4255 19.8905 36.3275 19.9264 36.2309 19.9543C36.0587 20.0061 35.8905 20.0619 35.7276 20.1164C35.521 20.1868 35.3304 20.2492 35.1171 20.309L34.9966 20.3449C34.6629 20.4445 34.349 20.5375 34.0219 20.6186L33.7438 20.6903L32.9254 20.8803C32.8221 20.9055 32.7161 20.9241 32.6023 20.9441L32.3917 20.9826L32.2381 21.0118C32.1056 21.0371 31.9865 21.061 31.8673 21.073H31.8527L31.3084 21.1527L30.7694 21.2072C29.327 21.3485 27.8717 21.2777 26.4496 20.9972C25.718 20.8515 24.9976 20.6544 24.2936 20.4073C23.5522 20.15 22.8303 19.8392 22.1337 19.4773C22.065 19.4417 21.9867 19.4289 21.9103 19.4408C21.8339 19.4528 21.7632 19.4888 21.7086 19.5437C21.6541 19.5981 21.6189 19.6688 21.6084 19.7451C21.5979 19.8214 21.6126 19.8991 21.6503 19.9662C21.8738 20.3559 22.1438 20.7168 22.4541 21.0411C22.7568 21.3649 23.0835 21.6651 23.4315 21.9392C24.1378 22.4884 24.9141 22.9406 25.7397 23.2837C25.8841 23.3409 26.0285 23.3954 26.1741 23.4512L26.3542 23.5176H26.3701C26.5145 23.5641 26.6601 23.6079 26.8058 23.6504L27.0018 23.7089H27.019L27.0945 23.7275C27.2812 23.774 27.4732 23.8218 27.6745 23.8604C27.8242 23.8883 27.9738 23.9135 28.1248 23.9388L28.3367 23.9746C28.7279 24.0303 29.1218 24.0649 29.5167 24.0783C30.0255 24.0966 30.535 24.0833 31.0423 24.0384L31.6898 23.9653H31.7137L32.3493 23.8511C32.5718 23.8125 32.7837 23.7581 32.9903 23.7049L33.3187 23.6186C33.4512 23.5853 33.5611 23.5521 33.6578 23.5176L33.8961 23.4365C34.2334 23.3301 34.5645 23.205 34.888 23.0619C34.9529 23.0327 35.0204 23.0061 35.0853 22.9782C35.2178 22.9224 35.3502 22.8666 35.4906 22.7962L36.0587 22.5025C37.578 21.7017 38.9273 20.612 40.0316 19.294C40.0771 19.2365 40.1037 19.1662 40.1077 19.0929C40.1117 19.0197 40.093 18.9469 40.0541 18.8847Z" fill="#78C2AD"/>
<path d="M9.3401 47.5741C9.3401 48.165 9.24162 48.7076 9.04466 49.2018C8.8477 49.6961 8.57085 50.1216 8.21409 50.4784C7.85733 50.8351 7.42811 51.112 6.92642 51.3089C6.42473 51.5059 5.86916 51.6044 5.2597 51.6044H2.18267V43.5439H5.2597C5.86916 43.5439 6.42473 43.6442 6.92642 43.8449C7.42811 44.0419 7.85733 44.3187 8.21409 44.6755C8.57085 45.0285 8.8477 45.4522 9.04466 45.9464C9.24162 46.4407 9.3401 46.9833 9.3401 47.5741ZM7.80716 47.5741C7.80716 47.1319 7.7477 46.7361 7.62878 46.3868C7.50987 46.0338 7.34078 45.7365 7.12152 45.4949C6.90226 45.2496 6.6347 45.062 6.31882 44.9319C6.00666 44.8018 5.65362 44.7368 5.2597 44.7368H3.69331V50.4115H5.2597C5.65362 50.4115 6.00666 50.3464 6.31882 50.2164C6.6347 50.0863 6.90226 49.9005 7.12152 49.6589C7.34078 49.4137 7.50987 49.1164 7.62878 48.767C7.7477 48.414 7.80716 48.0164 7.80716 47.5741ZM14.6551 45.7959C15.0155 45.7959 15.3463 45.8535 15.6473 45.9687C15.952 46.0839 16.214 46.253 16.4333 46.476C16.6525 46.6952 16.8235 46.9665 16.9461 47.2898C17.0688 47.6094 17.1301 47.9755 17.1301 48.388C17.1301 48.492 17.1245 48.5794 17.1134 48.65C17.1059 48.7169 17.0892 48.7708 17.0632 48.8116C17.0409 48.8488 17.0093 48.8767 16.9684 48.8952C16.9275 48.9101 16.8755 48.9175 16.8123 48.9175H13.2782C13.3191 49.5047 13.477 49.9358 13.752 50.2108C14.027 50.4858 14.3912 50.6233 14.8446 50.6233C15.0676 50.6233 15.259 50.5973 15.4188 50.5452C15.5823 50.4932 15.7235 50.4356 15.8424 50.3724C15.965 50.3093 16.071 50.2517 16.1601 50.1996C16.253 50.1476 16.3422 50.1216 16.4277 50.1216C16.4835 50.1216 16.5318 50.1327 16.5726 50.155C16.6135 50.1773 16.6488 50.2089 16.6786 50.2498L17.0799 50.7515C16.9275 50.9299 16.7566 51.0804 16.5671 51.203C16.3775 51.3219 16.1787 51.4186 15.9706 51.4929C15.7662 51.5635 15.5563 51.6137 15.3407 51.6434C15.1289 51.6731 14.9226 51.688 14.722 51.688C14.3243 51.688 13.9546 51.623 13.6127 51.4929C13.2708 51.3591 12.9735 51.164 12.7208 50.9076C12.4681 50.6474 12.2693 50.3278 12.1243 49.9488C11.9794 49.566 11.9069 49.1238 11.9069 48.6221C11.9069 48.2319 11.9701 47.8659 12.0965 47.524C12.2228 47.1784 12.403 46.8792 12.6372 46.6265C12.875 46.3701 13.163 46.1675 13.5012 46.0189C13.8431 45.8702 14.2277 45.7959 14.6551 45.7959ZM14.6829 46.7826C14.2816 46.7826 13.9676 46.8959 13.7409 47.1226C13.5142 47.3493 13.3693 47.6708 13.3061 48.087H15.8926C15.8926 47.9086 15.8684 47.7414 15.8201 47.5853C15.7718 47.4255 15.6975 47.2861 15.5971 47.1672C15.4968 47.0483 15.3704 46.9554 15.2181 46.8885C15.0657 46.8179 14.8873 46.7826 14.6829 46.7826ZM20.1051 51.6044V45.8851H20.9468C21.1252 45.8851 21.2422 45.9687 21.298 46.136L21.3927 46.5875C21.5079 46.4686 21.6287 46.3608 21.7551 46.2642C21.8851 46.1675 22.0208 46.0839 22.162 46.0133C22.3069 45.9427 22.4611 45.8888 22.6246 45.8517C22.7882 45.8145 22.9665 45.7959 23.1598 45.7959C23.4719 45.7959 23.7488 45.8498 23.9904 45.9576C24.2319 46.0616 24.4326 46.2103 24.5924 46.4035C24.7559 46.5931 24.8785 46.8216 24.9603 47.0892C25.0458 47.353 25.0885 47.6447 25.0885 47.9643V51.6044H23.7116V47.9643C23.7116 47.615 23.6299 47.3456 23.4664 47.1561C23.3066 46.9628 23.065 46.8662 22.7417 46.8662C22.5039 46.8662 22.2809 46.9201 22.0728 47.0278C21.8647 47.1356 21.6677 47.2824 21.4819 47.4682V51.6044H20.1051ZM30.1781 51.6936C29.6839 51.6936 29.303 51.5542 29.0354 51.2755C28.7678 50.9931 28.6341 50.6047 28.6341 50.1105V46.9164H28.0543C27.98 46.9164 27.915 46.8922 27.8592 46.8439C27.8072 46.7956 27.7812 46.7231 27.7812 46.6265V46.0802L28.7009 45.9297L28.9908 44.3689C29.0057 44.2946 29.0391 44.237 29.0912 44.1961C29.1469 44.1552 29.2156 44.1348 29.2974 44.1348H30.0109V45.9353H31.516V46.9164H30.0109V50.0157C30.0109 50.1941 30.0555 50.3334 30.1447 50.4338C30.2339 50.5341 30.3528 50.5843 30.5015 50.5843C30.5869 50.5843 30.6575 50.575 30.7133 50.5564C30.7727 50.5341 30.8229 50.5118 30.8638 50.4895C30.9084 50.4672 30.9474 50.4468 30.9808 50.4282C31.0143 50.4059 31.0477 50.3947 31.0812 50.3947C31.1221 50.3947 31.1555 50.4059 31.1815 50.4282C31.2075 50.4468 31.2354 50.4765 31.2651 50.5174L31.6776 51.1863C31.477 51.3535 31.2466 51.4799 30.9864 51.5653C30.7263 51.6508 30.4569 51.6936 30.1781 51.6936ZM38.9509 51.6044H38.3321C38.202 51.6044 38.0998 51.5858 38.0255 51.5486C37.9512 51.5077 37.8954 51.4278 37.8583 51.3089L37.7356 50.902C37.5907 51.0321 37.4476 51.1473 37.3064 51.2476C37.1689 51.3442 37.0259 51.426 36.8772 51.4929C36.7286 51.5598 36.5706 51.6099 36.4034 51.6434C36.2362 51.6768 36.0503 51.6936 35.846 51.6936C35.6044 51.6936 35.3814 51.662 35.177 51.5988C34.9726 51.5319 34.7961 51.4334 34.6475 51.3034C34.5025 51.1733 34.3892 51.0116 34.3074 50.8184C34.2257 50.6251 34.1848 50.4003 34.1848 50.1439C34.1848 49.9284 34.2405 49.7165 34.352 49.5084C34.4672 49.2966 34.6568 49.1071 34.9206 48.9398C35.1845 48.7689 35.5356 48.6277 35.9742 48.5162C36.4127 48.4047 36.9571 48.3415 37.6074 48.3267V47.9922C37.6074 47.6094 37.5257 47.327 37.3622 47.1449C37.2024 46.9591 36.9683 46.8662 36.6598 46.8662C36.4368 46.8662 36.251 46.8922 36.1024 46.9442C35.9537 46.9963 35.8237 47.0557 35.7122 47.1226C35.6044 47.1858 35.5041 47.2434 35.4112 47.2954C35.3183 47.3474 35.2161 47.3735 35.1046 47.3735C35.0117 47.3735 34.9318 47.3493 34.8649 47.301C34.798 47.2527 34.7441 47.1932 34.7032 47.1226L34.4524 46.6822C35.1101 46.0802 35.9036 45.7792 36.8326 45.7792C37.1671 45.7792 37.4644 45.8349 37.7245 45.9464C37.9884 46.0542 38.2113 46.2066 38.3934 46.4035C38.5755 46.5968 38.713 46.829 38.8059 47.1003C38.9025 47.3716 38.9509 47.6689 38.9509 47.9922V51.6044ZM36.2752 50.7459C36.4164 50.7459 36.5465 50.7329 36.6654 50.7069C36.7843 50.6809 36.8958 50.6419 36.9998 50.5898C37.1076 50.5378 37.2098 50.4746 37.3064 50.4003C37.4068 50.3223 37.5071 50.2312 37.6074 50.1272V49.1628C37.2061 49.1814 36.8698 49.2167 36.5985 49.2687C36.3309 49.317 36.1154 49.3802 35.9519 49.4583C35.7884 49.5363 35.6713 49.6273 35.6007 49.7314C35.5338 49.8355 35.5003 49.9488 35.5003 50.0714C35.5003 50.313 35.571 50.4858 35.7122 50.5898C35.8571 50.6939 36.0448 50.7459 36.2752 50.7459ZM43.6289 43.3209V51.6044H42.252V43.3209H43.6289ZM48.5137 45.8851V51.6044H47.1368V45.8851H48.5137ZM48.7199 44.2184C48.7199 44.3373 48.6958 44.4488 48.6474 44.5528C48.5991 44.6569 48.5341 44.748 48.4523 44.826C48.3743 44.904 48.2814 44.9672 48.1736 45.0155C48.0659 45.0601 47.9507 45.0824 47.828 45.0824C47.7091 45.0824 47.5958 45.0601 47.488 45.0155C47.3839 44.9672 47.2929 44.904 47.2148 44.826C47.1368 44.748 47.0736 44.6569 47.0253 44.5528C46.9807 44.4488 46.9584 44.3373 46.9584 44.2184C46.9584 44.0958 46.9807 43.9806 47.0253 43.8728C47.0736 43.765 47.1368 43.6721 47.2148 43.5941C47.2929 43.516 47.3839 43.4547 47.488 43.4101C47.5958 43.3618 47.7091 43.3376 47.828 43.3376C47.9507 43.3376 48.0659 43.3618 48.1736 43.4101C48.2814 43.4547 48.3743 43.516 48.4523 43.5941C48.5341 43.6721 48.5991 43.765 48.6474 43.8728C48.6958 43.9806 48.7199 44.0958 48.7199 44.2184ZM55.3272 47C55.29 47.0594 55.251 47.1022 55.2101 47.1282C55.1692 47.1505 55.1172 47.1616 55.054 47.1616C54.9871 47.1616 54.9147 47.1431 54.8366 47.1059C54.7623 47.0687 54.675 47.0278 54.5746 46.9833C54.4743 46.9349 54.3591 46.8922 54.229 46.855C54.1027 46.8179 53.9522 46.7993 53.7775 46.7993C53.5062 46.7993 53.2925 46.8569 53.1365 46.9721C52.9804 47.0873 52.9023 47.2378 52.9023 47.4236C52.9023 47.5463 52.9414 47.6503 53.0194 47.7358C53.1012 47.8175 53.2071 47.89 53.3371 47.9532C53.4709 48.0164 53.6214 48.074 53.7887 48.126C53.9559 48.1743 54.1268 48.2282 54.3015 48.2876C54.4762 48.3471 54.6471 48.4159 54.8143 48.4939C54.9816 48.5682 55.1302 48.6648 55.2603 48.7838C55.3941 48.899 55.5 49.0383 55.578 49.2018C55.6598 49.3653 55.7007 49.5623 55.7007 49.7927C55.7007 50.0677 55.6505 50.3223 55.5501 50.5564C55.4498 50.7868 55.303 50.9875 55.1098 51.1584C54.9165 51.3257 54.6768 51.4576 54.3907 51.5542C54.1083 51.6471 53.7831 51.6936 53.4152 51.6936C53.2182 51.6936 53.025 51.675 52.8355 51.6378C52.6496 51.6044 52.4694 51.5561 52.2947 51.4929C52.1238 51.4297 51.964 51.3554 51.8154 51.2699C51.6704 51.1844 51.5422 51.0915 51.4307 50.9912L51.7485 50.4672C51.7893 50.404 51.8376 50.3557 51.8934 50.3223C51.9491 50.2888 52.0197 50.2721 52.1052 50.2721C52.1907 50.2721 52.2706 50.2963 52.3449 50.3446C52.423 50.3929 52.5121 50.4449 52.6125 50.5007C52.7128 50.5564 52.8299 50.6084 52.9637 50.6567C53.1012 50.705 53.274 50.7292 53.4821 50.7292C53.6456 50.7292 53.7849 50.7106 53.9001 50.6735C54.0191 50.6326 54.1157 50.5806 54.19 50.5174C54.2681 50.4542 54.3238 50.3817 54.3572 50.3C54.3944 50.2145 54.413 50.1272 54.413 50.038C54.413 49.9042 54.3721 49.7946 54.2904 49.7091C54.2123 49.6236 54.1064 49.5493 53.9726 49.4861C53.8425 49.423 53.692 49.3672 53.5211 49.3189C53.3539 49.2669 53.1811 49.2111 53.0027 49.1517C52.828 49.0922 52.6552 49.0235 52.4843 48.9454C52.317 48.8637 52.1665 48.7615 52.0328 48.6388C51.9027 48.5162 51.7968 48.3657 51.715 48.1873C51.637 48.0089 51.598 47.7934 51.598 47.5407C51.598 47.3066 51.6444 47.0836 51.7373 46.8718C51.8302 46.6599 51.9659 46.476 52.1442 46.3199C52.3263 46.1601 52.5512 46.0338 52.8187 45.9409C53.09 45.8442 53.4022 45.7959 53.7552 45.7959C54.1491 45.7959 54.5078 45.861 54.8311 45.991C55.1544 46.1211 55.4238 46.292 55.6393 46.5039L55.3272 47ZM60.5357 51.6936C60.0415 51.6936 59.6605 51.5542 59.393 51.2755C59.1254 50.9931 58.9916 50.6047 58.9916 50.1105V46.9164H58.4119C58.3376 46.9164 58.2725 46.8922 58.2168 46.8439C58.1648 46.7956 58.1388 46.7231 58.1388 46.6265V46.0802L59.0585 45.9297L59.3484 44.3689C59.3632 44.2946 59.3967 44.237 59.4487 44.1961C59.5045 44.1552 59.5732 44.1348 59.655 44.1348H60.3685V45.9353H61.8736V46.9164H60.3685V50.0157C60.3685 50.1941 60.4131 50.3334 60.5023 50.4338C60.5915 50.5341 60.7104 50.5843 60.859 50.5843C60.9445 50.5843 61.0151 50.575 61.0708 50.5564C61.1303 50.5341 61.1805 50.5118 61.2214 50.4895C61.266 50.4672 61.305 50.4468 61.3384 50.4282C61.3719 50.4059 61.4053 50.3947 61.4388 50.3947C61.4796 50.3947 61.5131 50.4059 61.5391 50.4282C61.5651 50.4468 61.593 50.4765 61.6227 50.5174L62.0352 51.1863C61.8345 51.3535 61.6041 51.4799 61.344 51.5653C61.0839 51.6508 60.8144 51.6936 60.5357 51.6936Z" fill="#78C2AD"/>
</svg>
