<svg width="64" height="56" viewBox="0 0 64 56" fill="none" xmlns="http://www.w3.org/2000/svg">
<g clip-path="url(#clip0_504_600)">
<path d="M39.3287 0.572876C37.0336 0.593117 34.8029 1.33677 32.9521 2.69865C32.5393 2.96346 32.0596 3.10418 31.5696 3.10418C31.0796 3.10418 30.5998 2.96346 30.187 2.69865C28.335 1.33638 26.1029 0.592732 23.8065 0.572876C17.8392 0.572876 13.1644 6.11848 13.1644 13.1946C13.1644 16.1494 14.4781 18.719 15.6369 20.9856L15.8541 21.4107C17.7081 25.0538 19.1 28.3341 20.2243 30.9767C22.6438 36.6684 24.1032 40.1029 27.0444 40.1029C30.036 40.1029 30.571 37.3314 30.571 35.7185C30.571 31.0577 31.2226 30.6246 31.5736 30.6246C31.9245 30.6246 33.8686 30.9714 33.8686 36.3788C33.8686 37.5041 33.4792 40.0989 36.1013 40.0989C39.0426 40.0989 40.5033 36.6645 42.9228 30.9727C44.0445 28.3314 45.439 25.0445 47.293 21.4067L47.5102 20.9816C48.669 18.723 49.984 16.1601 49.984 13.1906C49.9708 6.11714 45.296 0.572876 39.3287 0.572876Z" fill="#78C2AD"/>
<path d="M22.3221 18.8918L22.3128 18.9024C22.2078 19.0113 22.1272 19.1415 22.0764 19.2841C22.0257 19.4268 22.0059 19.5787 22.0184 19.7297C22.031 19.8807 22.0755 20.0273 22.1491 20.1595C22.2228 20.2918 22.3237 20.4068 22.4452 20.4967C26.0209 23.1646 33.4462 25.3608 41.6172 18.4533C41.7265 18.3608 41.8161 18.2469 41.8804 18.1187C41.9447 17.9905 41.9824 17.8505 41.9913 17.7072C42.0002 17.5639 41.9801 17.4203 41.9322 17.285C41.8843 17.1498 41.8096 17.0256 41.7125 16.9201C41.5268 16.7152 41.2687 16.5911 40.9932 16.5742C40.7176 16.5574 40.4464 16.6491 40.2372 16.8298C32.159 23.6734 25.8023 20.2722 23.7126 18.7643C23.5048 18.6128 23.2492 18.5422 22.9934 18.5657C22.7376 18.5891 22.499 18.705 22.3221 18.8918Z" fill="white"/>
<path d="M44.5095 13.876C44.0843 13.4712 43.4125 13.4888 43.0089 13.9154C42.6054 14.342 42.623 15.016 43.0483 15.4209C43.4735 15.8257 44.1453 15.8081 44.5488 15.3815C44.9523 14.9549 44.9347 14.2809 44.5095 13.876Z" fill="white"/>
<path d="M39.9735 0.174438C37.6152 0.197714 35.3239 0.964126 33.4235 2.36531C32.9994 2.63734 32.5066 2.78189 32.0032 2.78189C31.4999 2.78189 31.007 2.63734 30.5829 2.36531C28.6811 0.963899 26.3885 0.197508 24.0289 0.174438C17.8987 0.174438 13.0981 5.87017 13.0981 13.1416C13.0981 16.1775 14.4476 18.8161 15.6381 21.1451L15.8607 21.5809C17.7623 25.3223 19.1952 28.693 20.346 31.4007C22.8304 37.2465 24.3309 40.7753 27.3516 40.7753C30.424 40.7753 30.9736 37.9281 30.9736 36.2753C30.9736 31.4923 31.6437 31.0433 32.0026 31.0433C32.3614 31.0433 33.0329 31.3993 33.0329 36.9542C33.0329 38.1088 33.9599 40.7753 36.6548 40.7753C39.6756 40.7753 41.176 37.2465 43.6604 31.3993C44.8138 28.6876 46.2494 25.3103 48.1458 21.5823L48.3683 21.1451C49.5602 18.8227 50.9083 16.1921 50.9083 13.1416C50.9043 5.86751 46.1077 0.174438 39.9735 0.174438ZM46.6493 20.259L46.4229 20.7014C44.5026 24.4786 43.0525 27.8892 41.8832 30.6407C39.861 35.4011 38.3989 38.8409 36.6509 38.8409C35.5914 38.8409 34.9571 37.9759 34.9571 36.2501C34.9571 31.0858 34.0459 29.0889 31.9986 29.0889C29.6612 29.0889 29.0414 31.6132 29.0414 36.7762C29.0414 37.7527 28.4044 38.8409 27.3476 38.8409C25.5996 38.8409 24.1375 35.4011 22.1127 30.6341C20.9473 27.8931 19.4959 24.4813 17.5743 20.7014L17.3492 20.259C16.2579 18.1266 15.0224 15.7085 15.0224 13.1416C15.0224 6.95564 18.9767 2.1142 24.0276 2.1142C25.9777 2.13179 27.8726 2.76594 29.4427 3.92642C31.4526 5.26092 33.8229 5.94319 36.2324 5.88079C37.8692 5.87015 39.4941 5.60114 41.0475 5.08363C41.2763 5.03148 41.4787 4.89877 41.6182 4.70959C41.7577 4.52041 41.8249 4.2873 41.8077 4.05263C41.7877 3.81483 41.683 3.59222 41.5128 3.42556C41.3425 3.25891 41.1181 3.15937 40.8807 3.1452C40.6882 3.13615 40.4973 3.18471 40.3324 3.28471C38.5175 3.88725 36.5911 4.07384 34.6949 3.83076C36.2398 2.7248 38.0863 2.12186 39.9841 2.10358C45.0324 2.10358 48.9894 6.949 48.9894 13.131C48.9761 15.7058 47.7406 18.1239 46.6493 20.2563V20.259Z" fill="white"/>
<path d="M40.4662 18.9847C40.4222 18.9209 40.3591 18.8728 40.286 18.8472C40.213 18.8217 40.1337 18.82 40.0597 18.8426C39.6081 18.9754 39.1909 19.1388 38.8757 19.2611C38.5076 19.3873 38.154 19.5175 37.7475 19.6703L37.1872 19.8629C37.1038 19.8908 37.0217 19.9214 36.9396 19.9519C36.8376 19.9905 36.7396 20.0263 36.643 20.0542C36.4708 20.1061 36.3026 20.1619 36.1397 20.2163C35.9331 20.2867 35.7425 20.3492 35.5292 20.409L35.4087 20.4448C35.075 20.5445 34.7611 20.6375 34.434 20.7185L34.1559 20.7903L33.3375 20.9803C33.2342 21.0055 33.1283 21.0241 33.0144 21.0441L32.8038 21.0826L32.6502 21.1118C32.5178 21.1371 32.3986 21.161 32.2794 21.1729H32.2648L31.7206 21.2527L31.1816 21.3071C29.7391 21.4484 28.2838 21.3777 26.8617 21.0972C26.1301 20.9515 25.4097 20.7544 24.7057 20.5073C23.9643 20.25 23.2424 19.9392 22.5458 19.5773C22.4771 19.5416 22.3988 19.5288 22.3224 19.5408C22.246 19.5527 22.1753 19.5888 22.1207 19.6437C22.0662 19.698 22.0311 19.7688 22.0205 19.8451C22.01 19.9214 22.0247 19.9991 22.0624 20.0662C22.286 20.4558 22.5559 20.8168 22.8663 21.1411C23.1689 21.4649 23.4956 21.7651 23.8436 22.0392C24.5499 22.5884 25.3262 23.0406 26.1519 23.3837C26.2962 23.4409 26.4406 23.4953 26.5862 23.5511L26.7663 23.6176H26.7822C26.9266 23.6641 27.0723 23.7079 27.2179 23.7504L27.4139 23.8089H27.4311L27.5066 23.8275C27.6933 23.874 27.8854 23.9218 28.0866 23.9603C28.2363 23.9883 28.386 24.0135 28.5369 24.0387L28.7488 24.0746C29.14 24.1303 29.5339 24.1649 29.9288 24.1782C30.4376 24.1965 30.9471 24.1832 31.4544 24.1384L32.1019 24.0653H32.1258L32.7614 23.951C32.9839 23.9125 33.1958 23.858 33.4024 23.8049L33.7308 23.7185C33.8633 23.6853 33.9732 23.6521 34.0699 23.6176L34.3082 23.5365C34.6455 23.4301 34.9766 23.305 35.3001 23.1619C35.365 23.1326 35.4325 23.1061 35.4974 23.0782C35.6299 23.0224 35.7623 22.9666 35.9027 22.8961L36.4708 22.6025C37.9901 21.8017 39.3395 20.7119 40.4437 19.3939C40.4892 19.3364 40.5158 19.2662 40.5198 19.1929C40.5239 19.1196 40.5051 19.0469 40.4662 18.9847Z" fill="white"/>
<path d="M9.75221 47.6741C9.75221 48.265 9.65373 48.8076 9.45677 49.3018C9.25981 49.7961 8.98295 50.2216 8.6262 50.5783C8.26944 50.9351 7.84022 51.2119 7.33853 51.4089C6.83684 51.6059 6.28127 51.7043 5.67181 51.7043H2.59478V43.6439H5.67181C6.28127 43.6439 6.83684 43.7442 7.33853 43.9449C7.84022 44.1418 8.26944 44.4187 8.6262 44.7755C8.98295 45.1285 9.25981 45.5521 9.45677 46.0464C9.65373 46.5407 9.75221 47.0832 9.75221 47.6741ZM8.21927 47.6741C8.21927 47.2319 8.15981 46.8361 8.04089 46.4868C7.92198 46.1337 7.75289 45.8364 7.53363 45.5949C7.31437 45.3496 7.04681 45.1619 6.73093 45.0319C6.41877 44.9018 6.06572 44.8368 5.67181 44.8368H4.10542V50.5114H5.67181C6.06572 50.5114 6.41877 50.4464 6.73093 50.3163C7.04681 50.1863 7.31437 50.0005 7.53363 49.7589C7.75289 49.5136 7.92198 49.2163 8.04089 48.867C8.15981 48.514 8.21927 48.1163 8.21927 47.6741ZM15.0672 45.8959C15.4277 45.8959 15.7584 45.9535 16.0594 46.0687C16.3641 46.1839 16.6261 46.353 16.8454 46.576C17.0646 46.7952 17.2356 47.0665 17.3582 47.3898C17.4809 47.7094 17.5422 48.0755 17.5422 48.488C17.5422 48.592 17.5366 48.6793 17.5255 48.75C17.518 48.8168 17.5013 48.8707 17.4753 48.9116C17.453 48.9488 17.4214 48.9766 17.3805 48.9952C17.3396 49.0101 17.2876 49.0175 17.2244 49.0175H13.6903C13.7312 49.6047 13.8891 50.0358 14.1641 50.3108C14.4391 50.5858 14.8033 50.7233 15.2567 50.7233C15.4797 50.7233 15.6711 50.6973 15.8309 50.6452C15.9944 50.5932 16.1356 50.5356 16.2545 50.4724C16.3771 50.4092 16.4831 50.3516 16.5723 50.2996C16.6652 50.2476 16.7543 50.2216 16.8398 50.2216C16.8956 50.2216 16.9439 50.2327 16.9848 50.255C17.0256 50.2773 17.0609 50.3089 17.0907 50.3498L17.492 50.8515C17.3396 51.0299 17.1687 51.1804 16.9792 51.303C16.7896 51.4219 16.5908 51.5185 16.3827 51.5929C16.1783 51.6635 15.9684 51.7136 15.7528 51.7434C15.541 51.7731 15.3348 51.788 15.1341 51.788C14.7364 51.788 14.3667 51.7229 14.0248 51.5929C13.6829 51.4591 13.3856 51.264 13.1329 51.0076C12.8802 50.7474 12.6814 50.4278 12.5364 50.0488C12.3915 49.666 12.319 49.2238 12.319 48.7221C12.319 48.3319 12.3822 47.9658 12.5086 47.6239C12.6349 47.2783 12.8152 46.9792 13.0493 46.7265C13.2871 46.4701 13.5751 46.2675 13.9133 46.1189C14.2552 45.9702 14.6398 45.8959 15.0672 45.8959ZM15.0951 46.8826C14.6937 46.8826 14.3797 46.9959 14.153 47.2226C13.9263 47.4493 13.7814 47.7707 13.7182 48.1869H16.3047C16.3047 48.0086 16.2805 47.8413 16.2322 47.6853C16.1839 47.5255 16.1096 47.3861 16.0092 47.2672C15.9089 47.1483 15.7826 47.0554 15.6302 46.9885C15.4778 46.9179 15.2994 46.8826 15.0951 46.8826ZM20.5172 51.7043V45.9851H21.3589C21.5373 45.9851 21.6543 46.0687 21.7101 46.2359L21.8048 46.6875C21.92 46.5685 22.0408 46.4608 22.1672 46.3641C22.2972 46.2675 22.4329 46.1839 22.5741 46.1133C22.719 46.0427 22.8732 45.9888 23.0368 45.9516C23.2003 45.9145 23.3786 45.8959 23.5719 45.8959C23.8841 45.8959 24.1609 45.9498 24.4025 46.0576C24.644 46.1616 24.8447 46.3103 25.0045 46.5035C25.168 46.693 25.2906 46.9216 25.3724 47.1891C25.4579 47.453 25.5006 47.7447 25.5006 48.0643V51.7043H24.1237V48.0643C24.1237 47.715 24.042 47.4456 23.8785 47.256C23.7187 47.0628 23.4771 46.9662 23.1538 46.9662C22.916 46.9662 22.693 47.0201 22.4849 47.1278C22.2768 47.2356 22.0798 47.3824 21.894 47.5682V51.7043H20.5172ZM30.5903 51.7935C30.096 51.7935 29.7151 51.6542 29.4475 51.3755C29.18 51.093 29.0462 50.7047 29.0462 50.2104V47.0163H28.4664C28.3921 47.0163 28.3271 46.9922 28.2713 46.9439C28.2193 46.8956 28.1933 46.8231 28.1933 46.7265V46.1802L29.1131 46.0297L29.4029 44.4689C29.4178 44.3945 29.4512 44.3369 29.5033 44.2961C29.559 44.2552 29.6278 44.2348 29.7095 44.2348H30.423V46.0353H31.9281V47.0163H30.423V50.1157C30.423 50.294 30.4676 50.4334 30.5568 50.5337C30.646 50.6341 30.7649 50.6842 30.9136 50.6842C30.999 50.6842 31.0696 50.675 31.1254 50.6564C31.1848 50.6341 31.235 50.6118 31.2759 50.5895C31.3205 50.5672 31.3595 50.5467 31.393 50.5282C31.4264 50.5059 31.4598 50.4947 31.4933 50.4947C31.5342 50.4947 31.5676 50.5059 31.5936 50.5282C31.6196 50.5467 31.6475 50.5765 31.6772 50.6174L32.0897 51.2863C31.8891 51.4535 31.6587 51.5799 31.3985 51.6653C31.1384 51.7508 30.869 51.7935 30.5903 51.7935ZM39.363 51.7043H38.7442C38.6141 51.7043 38.5119 51.6858 38.4376 51.6486C38.3633 51.6077 38.3076 51.5278 38.2704 51.4089L38.1478 51.002C38.0028 51.132 37.8598 51.2473 37.7185 51.3476C37.581 51.4442 37.438 51.526 37.2893 51.5929C37.1407 51.6598 36.9827 51.7099 36.8155 51.7434C36.6483 51.7768 36.4625 51.7935 36.2581 51.7935C36.0165 51.7935 35.7935 51.7619 35.5891 51.6988C35.3848 51.6319 35.2082 51.5334 35.0596 51.4033C34.9147 51.2733 34.8013 51.1116 34.7195 50.9184C34.6378 50.7251 34.5969 50.5003 34.5969 50.2439C34.5969 50.0283 34.6527 49.8165 34.7641 49.6084C34.8793 49.3966 35.0689 49.207 35.3327 49.0398C35.5966 48.8689 35.9478 48.7277 36.3863 48.6162C36.8248 48.5047 37.3692 48.4415 38.0195 48.4266V48.0922C38.0195 47.7094 37.9378 47.427 37.7743 47.2449C37.6145 47.0591 37.3804 46.9662 37.0719 46.9662C36.8489 46.9662 36.6631 46.9922 36.5145 47.0442C36.3658 47.0962 36.2358 47.1557 36.1243 47.2226C36.0165 47.2858 35.9162 47.3434 35.8233 47.3954C35.7304 47.4474 35.6282 47.4734 35.5167 47.4734C35.4238 47.4734 35.3439 47.4493 35.277 47.401C35.2101 47.3527 35.1562 47.2932 35.1153 47.2226L34.8645 46.7822C35.5223 46.1802 36.3157 45.8792 37.2447 45.8792C37.5792 45.8792 37.8765 45.9349 38.1366 46.0464C38.4005 46.1542 38.6234 46.3065 38.8055 46.5035C38.9876 46.6967 39.1251 46.929 39.218 47.2003C39.3147 47.4716 39.363 47.7689 39.363 48.0922V51.7043ZM36.6873 50.8459C36.8285 50.8459 36.9586 50.8329 37.0775 50.8069C37.1964 50.7809 37.3079 50.7418 37.4119 50.6898C37.5197 50.6378 37.6219 50.5746 37.7185 50.5003C37.8189 50.4223 37.9192 50.3312 38.0195 50.2271V49.2628C37.6182 49.2814 37.2819 49.3167 37.0106 49.3687C36.743 49.417 36.5275 49.4802 36.364 49.5582C36.2005 49.6363 36.0834 49.7273 36.0128 49.8314C35.9459 49.9354 35.9125 50.0488 35.9125 50.1714C35.9125 50.413 35.9831 50.5858 36.1243 50.6898C36.2692 50.7939 36.4569 50.8459 36.6873 50.8459ZM44.041 43.4209V51.7043H42.6641V43.4209H44.041ZM48.9258 45.9851V51.7043H47.5489V45.9851H48.9258ZM49.132 44.3184C49.132 44.4373 49.1079 44.5488 49.0596 44.6528C49.0112 44.7569 48.9462 44.8479 48.8645 44.926C48.7864 45.004 48.6935 45.0672 48.5857 45.1155C48.478 45.1601 48.3628 45.1824 48.2401 45.1824C48.1212 45.1824 48.0079 45.1601 47.9001 45.1155C47.796 45.0672 47.705 45.004 47.627 44.926C47.5489 44.8479 47.4857 44.7569 47.4374 44.6528C47.3928 44.5488 47.3705 44.4373 47.3705 44.3184C47.3705 44.1957 47.3928 44.0805 47.4374 43.9728C47.4857 43.865 47.5489 43.7721 47.627 43.694C47.705 43.616 47.796 43.5547 47.9001 43.5101C48.0079 43.4618 48.1212 43.4376 48.2401 43.4376C48.3628 43.4376 48.478 43.4618 48.5857 43.5101C48.6935 43.5547 48.7864 43.616 48.8645 43.694C48.9462 43.7721 49.0112 43.865 49.0596 43.9728C49.1079 44.0805 49.132 44.1957 49.132 44.3184ZM55.7393 47.1C55.7021 47.1594 55.6631 47.2021 55.6222 47.2282C55.5813 47.2505 55.5293 47.2616 55.4661 47.2616C55.3993 47.2616 55.3268 47.243 55.2487 47.2059C55.1744 47.1687 55.0871 47.1278 54.9868 47.0832C54.8864 47.0349 54.7712 46.9922 54.6411 46.955C54.5148 46.9179 54.3643 46.8993 54.1896 46.8993C53.9183 46.8993 53.7047 46.9569 53.5486 47.0721C53.3925 47.1873 53.3145 47.3378 53.3145 47.5236C53.3145 47.6462 53.3535 47.7503 53.4315 47.8358C53.5133 47.9175 53.6192 47.99 53.7493 48.0532C53.883 48.1163 54.0335 48.1739 54.2008 48.226C54.368 48.2743 54.5389 48.3282 54.7136 48.3876C54.8883 48.4471 55.0592 48.5158 55.2264 48.5939C55.3937 48.6682 55.5423 48.7648 55.6724 48.8837C55.8062 48.9989 55.9121 49.1383 55.9901 49.3018C56.0719 49.4653 56.1128 49.6623 56.1128 49.8927C56.1128 50.1677 56.0626 50.4223 55.9623 50.6564C55.8619 50.8868 55.7151 51.0875 55.5219 51.2584C55.3286 51.4256 55.0889 51.5576 54.8028 51.6542C54.5204 51.7471 54.1952 51.7935 53.8273 51.7935C53.6303 51.7935 53.4371 51.775 53.2476 51.7378C53.0618 51.7043 52.8815 51.656 52.7069 51.5929C52.5359 51.5297 52.3761 51.4554 52.2275 51.3699C52.0825 51.2844 51.9543 51.1915 51.8428 51.0912L52.1606 50.5672C52.2014 50.504 52.2498 50.4557 52.3055 50.4223C52.3612 50.3888 52.4319 50.3721 52.5173 50.3721C52.6028 50.3721 52.6827 50.3962 52.757 50.4445C52.8351 50.4929 52.9243 50.5449 53.0246 50.6006C53.1249 50.6564 53.242 50.7084 53.3758 50.7567C53.5133 50.805 53.6861 50.8292 53.8942 50.8292C54.0577 50.8292 54.1971 50.8106 54.3123 50.7734C54.4312 50.7326 54.5278 50.6805 54.6021 50.6174C54.6802 50.5542 54.7359 50.4817 54.7694 50.4C54.8065 50.3145 54.8251 50.2271 54.8251 50.138C54.8251 50.0042 54.7842 49.8945 54.7025 49.8091C54.6244 49.7236 54.5185 49.6493 54.3847 49.5861C54.2547 49.5229 54.1042 49.4672 53.9332 49.4189C53.766 49.3668 53.5932 49.3111 53.4148 49.2516C53.2401 49.1922 53.0673 49.1234 52.8964 49.0454C52.7292 48.9636 52.5786 48.8614 52.4449 48.7388C52.3148 48.6162 52.2089 48.4657 52.1271 48.2873C52.0491 48.1089 52.0101 47.8934 52.0101 47.6407C52.0101 47.4065 52.0565 47.1836 52.1494 46.9717C52.2423 46.7599 52.378 46.576 52.5563 46.4199C52.7384 46.2601 52.9633 46.1337 53.2308 46.0408C53.5021 45.9442 53.8143 45.8959 54.1673 45.8959C54.5612 45.8959 54.9199 45.9609 55.2432 46.091C55.5665 46.2211 55.8359 46.392 56.0514 46.6038L55.7393 47.1ZM60.9478 51.7935C60.4536 51.7935 60.0727 51.6542 59.8051 51.3755C59.5375 51.093 59.4037 50.7047 59.4037 50.2104V47.0163H58.824C58.7497 47.0163 58.6846 46.9922 58.6289 46.9439C58.5769 46.8956 58.5509 46.8231 58.5509 46.7265V46.1802L59.4706 46.0297L59.7605 44.4689C59.7754 44.3945 59.8088 44.3369 59.8608 44.2961C59.9166 44.2552 59.9853 44.2348 60.0671 44.2348H60.7806V46.0353H62.2857V47.0163H60.7806V50.1157C60.7806 50.294 60.8252 50.4334 60.9144 50.5337C61.0036 50.6341 61.1225 50.6842 61.2711 50.6842C61.3566 50.6842 61.4272 50.675 61.483 50.6564C61.5424 50.6341 61.5926 50.6118 61.6335 50.5895C61.6781 50.5672 61.7171 50.5467 61.7505 50.5282C61.784 50.5059 61.8174 50.4947 61.8509 50.4947C61.8917 50.4947 61.9252 50.5059 61.9512 50.5282C61.9772 50.5467 62.0051 50.5765 62.0348 50.6174L62.4473 51.2863C62.2466 51.4535 62.0162 51.5799 61.7561 51.6653C61.496 51.7508 61.2265 51.7935 60.9478 51.7935Z" fill="white"/>
</g>
<defs>
<clipPath id="clip0_504_600">
<rect width="63.1757" height="55" fill="white" transform="translate(0.412109 0.0999756)"/>
</clipPath>
</defs>
</svg>
